# xmcd CD database file
#
# Track frame offsets:
#	150
#	24052
#	58382
#	102945
#	130167
#	163460
#	183960
#	214147
#	225152
#	251027
#
# Disc length: 3998 seconds
#
# Revision: 0
# Processed by: cddbd v1.4PL0 Copyright (c) Steve Scherf et al.
# Submitted via: CDex 1.51
#
DISCID=840f9c0a
DTITLE=Billy Bang - Big Bang Theory
DYEAR=2000
DGENRE=Jazz
TTITLE0=Contrary Motion
TTITLE1=At Play In The Fields Of The Lord
TTITLE2=Big Bang Theory
TTITLE3=Theme For Taraby
TTITLE4=Silent Observation
TTITLE5=One For Jazz (For Dennis Charles)
TTITLE6=Sweet Irene
TTITLE7=Swing Low, Sweet Chariot
TTITLE8=Saved By The Bell
TTITLE9=Little Sunflower
EXTD=YEAR: 2000
EXTT0=
EXTT1=
EXTT2=
EXTT3=
EXTT4=
EXTT5=
EXTT6=
EXTT7=
EXTT8=
EXTT9=
PLAYORDER=
